<svg class="img-fluid" id="outputsvg" xmlns="http://www.w3.org/2000/svg" style="transform: none; transform-origin: 50% 50% 0px; cursor: move; max-height: none;" width="425" height="441" viewBox="0 0 4250 4410"><g id="larzRHalDcwqRjOeASTrVF" fill="rgb(159,184,219)" style="transform: none;"><g><path id="pYCiBRpux" d="M2030 2380 c0 -21 10 -24 48 -14 36 10 27 34 -13 34 -28 0 -35 -4 -35 -20z"></path><path id="pqHcgRSnt" d="M2120 2386 c0 -13 28 -26 58 -26 6 0 12 9 12 20 0 16 -7 20 -35 20 -23 0 -35 -5 -35 -14z"></path><path id="pE7x5zNgN" d="M1160 2376 c0 -8 12 -17 27 -21 15 -3 39 -15 55 -26 l28 -20 0 30 c0 24 -4 31 -20 31 -11 0 -20 5 -20 10 0 6 -16 10 -35 10 -23 0 -35 -5 -35 -14z"></path><path id="poj6HzFAV" d="M3150 2376 c0 -8 12 -17 27 -21 15 -3 39 -15 55 -26 l28 -20 0 30 c0 24 -4 31 -20 31 -11 0 -20 5 -20 10 0 6 -16 10 -35 10 -23 0 -35 -5 -35 -14z"></path><path id="pMD1wz8ha" d="M2970 2355 c0 -29 2 -30 40 -10 40 21 38 35 -5 35 -31 0 -35 -3 -35 -25z"></path><path id="pBrnqPsRo" d="M2225 2340 c3 -5 19 -19 35 -30 l30 -21 0 30 c0 29 -3 31 -36 31 -20 0 -33 -4 -29 -10z"></path><path id="p14ucWqy0i" d="M1900 2284 c0 -39 9 -38 40 6 l21 30 -30 0 c-29 0 -31 -3 -31 -36z"></path><path id="pXoYjQqHE" d="M900 2280 c0 -19 -5 -30 -14 -30 -16 0 -26 -43 -26 -116 0 -48 2 -54 21 -54 19 0 20 4 15 35 -9 44 8 109 40 158 l24 37 -30 0 c-27 0 -30 -3 -30 -30z"></path><path id="pYvr17dmJ" d="M1299 2272 c11 -16 25 -49 32 -75 7 -30 17 -47 26 -47 13 0 15 10 11 52 -3 29 -11 54 -17 56 -6 2 -11 12 -11 23 0 15 -7 19 -31 19 l-30 0 20 -28z"></path><path id="poCfH318O" d="M3289 2272 c11 -16 23 -40 26 -55 10 -40 35 -34 35 8 0 19 -4 35 -10 35 -5 0 -10 9 -10 20 0 16 -7 20 -31 20 l-30 0 20 -28z"></path><path id="pAOzAeg7z" d="M2870 2245 c0 -19 -4 -35 -10 -35 -6 0 -10 -28 -10 -65 0 -37 4 -65 10 -65 6 0 10 -13 10 -29 0 -46 10 -61 40 -61 l29 0 -27 47 c-31 57 -35 149 -9 200 22 41 22 43 -8 43 -22 0 -25 -4 -25 -35z"></path><path id="pcdtUsJgV" d="M1850 2145 c0 -47 3 -55 19 -55 15 0 18 8 18 55 0 47 -3 55 -18 55 -16 0 -19 -8 -19 -55z"></path><path id="pT91FIY9o" d="M2330 2145 c0 -38 3 -45 20 -45 17 0 20 7 20 45 0 38 -3 45 -20 45 -17 0 -20 -7 -20 -45z"></path><path id="pEPv1g4y6" d="M1332 2100 c-9 -38 -9 -40 14 -40 21 0 24 4 24 40 0 27 -4 40 -14 40 -8 0 -18 -18 -24 -40z"></path><path id="p3jJnKATU" d="M3315 2073 c-3 -15 -15 -39 -26 -55 l-20 -28 30 0 c24 0 31 4 31 20 0 11 5 20 10 20 6 0 10 16 10 35 0 42 -25 48 -35 8z"></path><path id="py0oYtx4a" d="M1890 2015 c0 -32 2 -35 30 -35 l30 0 -22 35 c-29 44 -38 44 -38 0z"></path><path id="p1FBNxHIeP" d="M1280 1995 l-34 -35 37 0 c36 0 37 1 37 35 0 19 -1 35 -3 35 -2 0 -18 -16 -37 -35z"></path><path id="poGeaS0S7" d="M2950 1951 c0 -24 4 -31 19 -31 11 0 21 -5 23 -11 2 -6 25 -13 51 -16 63 -7 66 18 5 37 -24 7 -55 21 -70 32 l-28 19 0 -30z"></path><path id="p10pbn0T7M" d="M1000 1925 c0 -24 22 -35 73 -35 45 0 31 25 -23 42 l-50 16 0 -23z"></path><path id="p9m7rH60N" d="M1148 1923 c-33 -8 -20 -33 17 -33 28 0 35 4 35 20 0 20 -14 23 -52 13z"></path><path id="pmrCASCwR" d="M2030 1910 c0 -16 7 -20 35 -20 40 0 49 24 13 34 -38 10 -48 7 -48 -14z"></path><path id="prDjDLafX" d="M2138 1923 c-33 -8 -20 -33 17 -33 28 0 35 4 35 20 0 20 -14 23 -52 13z"></path><path id="pbRcmMj0x" d="M3138 1923 c-33 -8 -20 -33 17 -33 28 0 35 4 35 20 0 20 -14 23 -52 13z"></path><path id="p3Xd2zYdg" d="M3723 903 c-4 -10 -15 -24 -25 -31 -10 -7 -18 -24 -18 -38 0 -16 -6 -24 -17 -24 -9 0 -66 -49 -127 -108 -122 -118 -254 -221 -388 -301 -72 -43 -88 -57 -88 -77 0 -17 -6 -24 -20 -24 -15 0 -20 -7 -20 -25 0 -14 2 -25 5 -25 11 0 75 34 75 41 0 4 49 37 109 75 226 139 344 247 578 527 l23 27 -40 0 c-30 0 -42 -5 -47 -17z"></path><path id="pUPN4syDt" d="M1330 233 c1 -26 7 -30 83 -56 233 -80 371 -106 597 -113 91 -2 195 -6 233 -8 l67 -3 0 28 0 29 -159 0 c-179 0 -334 17 -491 55 -124 30 -260 75 -260 87 0 4 -16 8 -35 8 -32 0 -35 -3 -35 -27z"></path></g></g><g id="lVimcKTvEQlQuIqy1iaAoz" fill="rgb(145,174,214)" style="transform: none;"><g><path id="pMu8Q1XG9" d="M1790 4121 c-21 -6 -29 -19 -48 -86 -12 -44 -25 -103 -29 -132 -7 -66 1 -70 105 -53 111 19 116 24 107 140 -10 143 -9 140 -64 139 -25 -1 -57 -4 -71 -8z"></path><path id="pE53mv7fQ" d="M2683 4038 c-18 -23 -53 -155 -53 -201 l0 -45 98 -37 c53 -21 129 -54 167 -74 58 -29 81 -35 135 -36 65 0 150 21 150 37 0 4 11 8 25 8 14 0 25 5 25 10 0 6 11 10 24 10 13 0 26 4 28 8 3 9 158 72 176 72 8 0 12 21 12 60 0 58 -15 110 -32 110 -4 0 -8 11 -8 25 0 18 -5 25 -20 25 -11 0 -20 5 -20 10 0 23 -85 8 -200 -35 -67 -25 -130 -45 -141 -45 -11 0 -53 14 -92 31 -160 70 -254 93 -274 67z"></path><path id="pNSSx0n1E" d="M3715 3531 c-15 -88 18 -160 74 -161 l34 0 -7 53 c-3 28 -6 73 -6 100 l0 47 -44 0 c-44 0 -44 -1 -51 -39z"></path><path id="p1Gv54ynAt" d="M2990 2366 c0 -23 2 -24 35 -13 19 6 35 16 35 24 0 8 -13 13 -35 13 -30 0 -35 -3 -35 -24z"></path><path id="pdkeokqHA" d="M980 2355 c0 -29 2 -30 40 -10 40 21 38 35 -5 35 -31 0 -35 -3 -35 -25z"></path><path id="p13JYIDEn6" d="M2280 2290 c31 -44 40 -45 40 -6 0 33 -2 36 -31 36 l-30 0 21 -30z"></path><path id="p1GU0MVIuH" d="M2880 2265 c0 -44 9 -44 38 0 l22 35 -30 0 c-28 0 -30 -3 -30 -35z"></path><path id="pxNJGJaq9" d="M2323 2075 c-11 -33 -10 -35 13 -35 21 0 24 5 24 35 0 22 -5 35 -13 35 -8 0 -18 -16 -24 -35z"></path><path id="pQNxq9B8z" d="M1336 2091 c-3 -4 -10 -20 -15 -35 -10 -24 -8 -26 14 -26 22 0 25 4 25 35 0 33 -12 46 -24 26z"></path><path id="pFl5bZ3fw" d="M1265 1979 l-39 -39 37 0 c41 0 51 12 45 53 -3 25 -3 25 -43 -14z"></path><path id="pEPVPVx4P" d="M3260 1985 l-34 -35 37 0 c36 0 37 1 37 35 0 19 -1 35 -3 35 -2 0 -18 -16 -37 -35z"></path><path id="pYH3NMCVB" d="M960 1950 c0 -28 3 -30 35 -30 44 0 44 9 0 38 l-35 22 0 -30z"></path><path id="pFljgFYYW" d="M1970 1936 c0 -21 5 -26 25 -26 14 0 25 -4 25 -10 0 -5 16 -10 35 -10 52 0 43 22 -17 45 -29 11 -56 21 -60 23 -5 2 -8 -8 -8 -22z"></path><path id="pr5wGLz7v" d="M2163 1928 c-45 -15 -43 -38 2 -38 31 0 35 3 35 25 0 14 -1 25 -2 24 -2 -1 -18 -6 -35 -11z"></path><path id="pZbYa4o1m" d="M350 1074 c0 -3 18 -36 40 -73 43 -74 97 -145 200 -261 36 -41 69 -83 73 -92 3 -10 16 -18 27 -18 16 0 20 7 20 31 0 24 -13 44 -60 93 -65 68 -190 222 -218 268 -9 15 -20 28 -24 28 -4 0 -8 7 -8 15 0 9 -9 15 -25 15 -14 0 -25 -3 -25 -6z"></path><path id="pxxu6jv2s" d="M3754 942 c-12 -4 -45 -36 -74 -72 -148 -180 -407 -396 -582 -486 -47 -24 -48 -26 -48 -70 0 -38 3 -45 18 -42 9 2 18 13 20 25 2 16 29 37 90 74 134 80 266 183 388 301 61 59 115 108 121 108 11 0 25 25 27 45 1 6 11 14 24 20 12 5 20 16 17 23 -2 7 3 16 13 19 9 4 31 20 47 35 l30 28 -35 -1 c-19 -1 -44 -4 -56 -7z"></path><path id="pIguw5ztQ" d="M1270 241 c0 -18 61 -43 90 -37 16 3 50 -3 80 -15 83 -31 284 -78 408 -94 62 -8 185 -15 273 -15 135 0 159 -2 159 -15 0 -8 7 -15 15 -15 10 0 15 10 15 34 l0 34 -197 5 c-230 5 -384 29 -563 85 -119 37 -280 56 -280 33z"></path></g></g><g id="l1MezBahtvt6te7HmEVBGEJ" fill="rgb(130,161,206)" style="transform: none;"><g><path id="pWftsClhA" d="M3967 4306 c-27 -7 -53 -18 -58 -23 -6 -6 -48 -165 -95 -354 -46 -189 -88 -357 -94 -374 -15 -49 -23 -112 -16 -139 7 -27 33 -38 194 -78 81 -20 94 -21 102 -8 7 10 5 18 -4 25 -16 12 -11 36 55 290 22 88 47 192 55 230 12 65 46 196 80 308 14 45 13 51 -4 80 -30 53 -114 70 -215 43z m-187 -827 c0 -51 -2 -59 -14 -50 -10 9 -11 22 -3 61 5 28 11 50 13 50 2 0 4 -28 4 -61z"></path><path id="po7p5Oo9" d="M1750 4129 c-30 -10 -111 -33 -180 -49 -193 -47 -429 -148 -567 -242 -59 -40 -58 -67 6 -162 54 -80 63 -86 123 -86 30 0 62 13 129 51 151 87 376 171 540 200 56 10 69 16 69 31 0 20 -22 23 -83 9 -20 -5 -39 -6 -41 -2 -5 8 42 193 51 202 5 4 25 11 46 14 30 6 37 4 37 -9 0 -9 7 -16 15 -16 11 0 15 11 15 40 l0 40 -52 -1 c-29 0 -78 -9 -108 -20z"></path><path id="p20TUj67O" d="M2681 4052 c-17 -31 -14 -82 4 -82 8 0 15 6 15 13 0 44 58 33 240 -48 102 -44 108 -44 286 22 89 33 129 44 132 35 2 -7 12 -12 23 -12 10 0 19 -7 19 -15 0 -8 -4 -15 -10 -15 -5 0 -10 -4 -10 -10 0 -5 9 -10 19 -10 10 0 21 -7 25 -15 3 -8 10 -15 16 -15 17 0 11 57 -12 116 l-23 56 -45 -5 c-25 -3 -105 -29 -179 -57 l-134 -51 -131 52 c-153 61 -218 72 -235 41z"></path><path id="p1GwdoyYTS" d="M1890 4000 c0 -11 -4 -20 -10 -20 -5 0 -10 -4 -10 -10 0 -5 7 -10 15 -10 8 0 15 -7 15 -15 0 -8 7 -15 15 -15 11 0 15 12 15 45 0 38 -3 45 -20 45 -13 0 -20 -7 -20 -20z"></path><path id="p1GEPzIVhI" d="M3440 3865 c0 -14 -6 -25 -12 -25 -9 0 -8 -4 2 -10 12 -8 12 -10 1 -10 -20 0 -175 -62 -179 -72 -2 -4 -15 -8 -28 -8 -13 0 -24 -4 -24 -10 0 -5 -11 -10 -25 -10 -14 0 -25 -4 -25 -10 0 -5 -7 -10 -15 -10 -8 0 -15 -4 -15 -10 0 -5 20 -10 45 -10 25 0 45 5 45 10 0 6 11 10 25 10 14 0 25 5 25 10 0 6 9 10 20 10 26 0 168 57 186 75 8 7 14 32 14 54 0 34 -3 41 -20 41 -15 0 -20 -7 -20 -25z"></path><path id="prc8AItD2" d="M2640 3815 c0 -33 2 -35 35 -35 41 0 46 16 10 32 -14 6 -25 17 -25 25 0 7 -4 13 -10 13 -5 0 -10 -16 -10 -35z"></path><path id="p1E7RlP9bW" d="M2970 3664 c0 -23 3 -24 65 -24 59 0 65 2 65 21 0 19 -5 21 -37 17 -21 -3 -50 -1 -65 3 -25 7 -28 5 -28 -17z"></path><path id="p1FckjYc7F" d="M352 3183 c-18 -7 -87 -129 -138 -243 -91 -207 -164 -482 -164 -622 l0 -65 92 -7 c138 -9 204 -8 216 7 5 6 19 66 31 132 31 181 82 333 172 519 41 85 50 147 27 179 -7 9 -44 37 -83 62 -67 43 -112 55 -153 38z"></path><path id="p7Xsj9T4w" d="M3955 2623 c-27 -8 -65 -22 -84 -29 l-33 -15 5 -82 c3 -45 13 -127 21 -182 18 -114 20 -236 5 -345 -5 -41 -12 -112 -16 -156 -5 -78 -5 -82 18 -97 29 -18 228 -60 267 -55 26 3 27 6 50 128 14 79 19 126 12 128 -15 5 -12 41 5 58 11 11 15 38 15 100 0 68 -3 84 -15 84 -12 0 -15 14 -15 66 0 105 -33 314 -62 387 -10 25 -14 27 -67 26 -31 0 -78 -8 -106 -16z"></path><path id="p8iUoz63S" d="M1130 2386 c0 -8 19 -18 46 -25 61 -16 129 -79 151 -142 20 -55 43 -65 43 -19 0 60 -61 160 -97 160 -7 0 -13 4 -13 10 0 11 -64 30 -102 30 -17 0 -28 -5 -28 -14z"></path><path id="pyOTL21YU" d="M3020 2390 c0 -5 -14 -10 -30 -10 -18 0 -33 -6 -36 -15 -4 -8 -12 -15 -19 -15 -20 0 -45 -35 -45 -63 0 -16 -6 -27 -14 -27 -7 0 -16 -14 -20 -31 -18 -94 12 -110 37 -20 13 48 25 67 63 100 28 25 65 46 91 52 53 14 59 39 8 39 -19 0 -35 -4 -35 -10z"></path><path id="plce5mOz8" d="M3120 2386 c0 -13 28 -26 58 -26 6 0 12 9 12 20 0 16 -7 20 -35 20 -23 0 -35 -5 -35 -14z"></path><path id="pRJq473lg" d="M1000 2380 c0 -5 -9 -10 -20 -10 -16 0 -20 -7 -20 -31 l0 -30 28 20 c16 11 40 23 55 26 40 10 34 35 -8 35 -19 0 -35 -4 -35 -10z"></path><path id="puJlTIwNo" d="M1970 2350 l0 -29 35 20 c19 12 35 25 35 30 0 5 -16 9 -35 9 -32 0 -35 -2 -35 -30z"></path><path id="pziHmIpTY" d="M2180 2371 c0 -4 23 -22 50 -39 l50 -31 0 29 c0 20 -5 30 -15 30 -8 0 -15 5 -15 10 0 6 -16 10 -35 10 -19 0 -35 -4 -35 -9z"></path><path id="pbr7PKfIi" d="M3260 2304 l45 -45 3 31 c4 42 -13 60 -56 60 l-36 0 44 -46z"></path><path id="pnmX1N3J9" d="M880 2250 c0 -16 -4 -30 -10 -30 -5 0 -10 -16 -10 -35 0 -51 23 -44 41 13 9 26 19 55 23 65 7 14 3 17 -18 17 -22 0 -26 -4 -26 -30z"></path><path id="pludiZS5U" d="M1856 2219 c-3 -17 -6 -51 -6 -74 0 -75 10 -105 35 -105 22 0 22 0 7 53 -13 48 -13 60 1 105 15 52 15 52 -8 52 -17 0 -24 -7 -29 -31z"></path><path id="p18MATaGmc" d="M2326 2199 c7 -28 11 -64 7 -80 -5 -25 -2 -29 16 -29 18 0 21 6 21 43 0 23 -3 59 -6 80 -5 30 -11 37 -29 37 -22 0 -22 -1 -9 -51z"></path><path id="pnz0xaiai" d="M3320 2218 c0 -30 13 -58 26 -58 9 0 14 12 14 35 0 28 -4 35 -20 35 -11 0 -20 -6 -20 -12z"></path><path id="p5aGQsdC6" d="M860 2113 c0 -16 5 -45 11 -65 8 -31 14 -38 36 -38 20 0 24 3 17 18 -4 9 -14 38 -23 65 -17 52 -41 63 -41 20z"></path><path id="pWr38wtFh" d="M2850 2108 c0 -52 11 -78 31 -78 15 0 19 -7 19 -33 0 -42 15 -57 58 -57 l35 0 -45 48 c-33 35 -48 62 -58 100 -14 60 -40 72 -40 20z"></path><path id="p19EEVFMmD" d="M3326 2108 c-10 -38 -7 -48 14 -48 16 0 20 7 20 35 0 40 -24 49 -34 13z"></path><path id="p17yFfYro0" d="M1335 2093 c-11 -47 -54 -111 -85 -130 -39 -23 -38 -33 5 -33 28 0 35 4 35 20 0 13 7 20 20 20 11 0 20 7 20 15 0 8 4 15 9 15 12 0 31 56 31 91 0 38 -26 38 -35 2z"></path><path id="prAiPxdfK" d="M2292 2015 l-22 -35 30 0 c28 0 30 3 30 35 0 44 -9 44 -38 0z"></path><path id="puRUJq8CG" d="M3286 2012 c-11 -16 -32 -37 -48 -48 -36 -25 -35 -34 3 -34 42 0 79 36 79 78 0 39 -9 41 -34 4z"></path><path id="ps0oknMW8" d="M2198 1939 c-45 -23 -49 -39 -9 -39 45 0 61 10 61 36 0 29 -4 29 -52 3z"></path><path id="pqMnNaenM" d="M1990 1925 c0 -22 4 -25 36 -25 44 0 42 18 -4 37 -31 13 -32 12 -32 -12z"></path><path id="pks6BjNx0" d="M1173 1928 c-45 -15 -43 -38 2 -38 31 0 35 3 35 25 0 14 -1 25 -2 24 -2 -1 -18 -6 -35 -11z"></path><path id="pxTOCCqYN" d="M3010 1914 c0 -21 5 -24 35 -24 22 0 35 5 35 13 0 8 -16 18 -35 24 -33 11 -35 10 -35 -13z"></path><path id="phN39I48u" d="M3163 1928 c-45 -15 -43 -38 2 -38 31 0 35 3 35 25 0 14 -1 25 -2 24 -2 -1 -18 -6 -35 -11z"></path><path id="ptUmGuh0w" d="M244 1513 c-85 -30 -101 -39 -97 -55 3 -10 11 -18 18 -18 7 0 25 -29 39 -65 102 -254 236 -465 417 -652 34 -35 56 -63 50 -63 -6 0 -11 -4 -11 -10 0 -5 12 -10 26 -10 20 0 48 20 105 77 l79 77 0 54 c0 51 -3 57 -53 115 -63 73 -157 198 -185 247 -32 56 -128 253 -137 280 -22 73 -92 79 -251 23z"></path><path id="poLXTTYxs" d="M3490 1038 c-61 -78 -174 -192 -265 -268 -85 -71 -214 -160 -231 -160 -23 0 -44 -38 -44 -80 0 -58 91 -230 122 -230 14 0 18 5 14 15 -4 10 9 22 42 39 175 90 434 305 582 486 32 40 65 69 84 75 17 6 32 17 33 25 2 9 -36 42 -93 83 -90 62 -100 67 -149 67 -52 0 -54 -1 -95 -52z"></path><path id="pAVNnd0cf" d="M1434 462 c-42 -27 -117 -262 -84 -262 6 0 10 6 10 14 0 12 14 10 73 -10 217 -75 454 -114 690 -114 133 0 157 -2 157 -15 0 -8 7 -15 16 -15 15 0 16 13 10 121 -4 67 -11 131 -16 144 -11 28 -44 35 -179 35 -97 0 -209 13 -336 40 -27 6 -63 14 -80 17 -16 3 -35 9 -41 14 -30 24 -195 48 -220 31z"></path></g></g><g id="ldh4QOJ8YEillmNWj2pG6x" fill="rgb(117,147,187)" style="transform: none;"><g><path id="punofS7e8" d="M3960 4328 c-50 -14 -60 -26 -60 -69 0 -45 5 -47 35 -15 29 31 109 49 159 35 26 -7 44 -21 58 -45 23 -40 38 -40 51 -1 12 36 -12 73 -58 93 -39 16 -133 17 -185 2z"></path><path id="pXhttWP1i" d="M1815 4169 c-16 -4 -88 -22 -160 -38 -236 -55 -440 -135 -627 -246 l-78 -45 0 -45 c0 -44 1 -45 31 -45 26 0 29 2 20 14 -10 12 -4 20 31 44 139 94 375 195 568 242 69 16 152 39 185 50 72 24 95 25 95 5 0 -8 7 -15 15 -15 11 0 15 12 15 45 0 44 0 45 -32 44 -18 -1 -46 -5 -63 -10z"></path><path id="pz87vLdAT" d="M2690 4050 c0 -40 13 -53 24 -24 7 19 12 18 189 -53 l139 -55 86 32 c254 93 246 91 254 70 12 -32 18 -23 18 26 l0 47 -48 -6 c-27 -3 -107 -28 -178 -55 -125 -48 -130 -49 -164 -35 -123 53 -244 93 -279 93 l-41 0 0 -40z"></path><path id="pn2bYRMLk" d="M3443 3865 c6 -19 16 -35 24 -35 8 0 13 13 13 35 0 30 -3 35 -24 35 -23 0 -24 -2 -13 -35z"></path><path id="pEctO7Pk2" d="M3790 3825 c0 -40 24 -49 34 -12 10 37 7 47 -14 47 -16 0 -20 -7 -20 -35z"></path><path id="p1HMupREB8" d="M3770 3745 c0 -40 24 -49 34 -12 10 37 7 47 -14 47 -16 0 -20 -7 -20 -35z"></path><path id="pQotB7EMH" d="M3830 3370 c0 -16 7 -20 35 -20 40 0 49 24 13 34 -38 10 -48 7 -48 -14z"></path><path id="pN0eK63CI" d="M3950 3290 c0 -62 24 -69 39 -12 16 54 14 62 -14 62 -23 0 -25 -3 -25 -50z"></path><path id="pkrzt40sc" d="M330 3187 c-47 -24 -205 -368 -244 -532 -25 -109 -45 -243 -48 -325 l-3 -75 37 -3 c29 -2 38 0 38 12 0 9 -7 16 -15 16 -51 0 40 384 149 630 79 178 137 263 167 244 5 -3 9 6 9 20 0 23 -4 26 -32 26 -18 0 -44 -6 -58 -13z"></path><path id="phCK3uSY" d="M563 3025 c0 -27 4 -35 19 -35 14 0 18 8 18 35 0 27 -4 35 -18 35 -15 0 -19 -8 -19 -35z"></path><path id="p9QgqNGIF" d="M4060 2631 c0 -12 6 -21 14 -21 24 0 46 -75 70 -241 9 -59 16 -136 16 -173 0 -52 3 -66 15 -66 9 0 15 -9 15 -25 0 -14 -4 -25 -10 -25 -5 0 -10 -9 -10 -20 0 -11 5 -20 10 -20 6 0 10 -9 10 -20 0 -11 -7 -20 -15 -20 -12 0 -15 -13 -15 -55 0 -30 5 -55 10 -55 6 0 10 -9 10 -20 0 -11 -7 -20 -15 -20 -9 0 -15 -9 -15 -25 0 -14 5 -25 10 -25 6 0 10 -4 10 -10 0 -5 -7 -10 -15 -10 -8 0 -15 -9 -15 -20 0 -11 5 -20 10 -20 6 0 10 -7 10 -15 0 -8 -5 -15 -11 -15 -5 0 -7 -4 -4 -10 3 -5 -3 -10 -15 -10 -13 0 -20 -5 -17 -12 2 -7 15 -13 28 -13 23 0 25 6 48 120 21 107 23 147 24 380 0 238 -2 269 -25 370 l-24 110 -52 3 c-47 3 -52 1 -52 -17z"></path><path id="ploa2WCwE" d="M1030 2380 c0 -21 10 -24 48 -14 36 10 27 34 -13 34 -28 0 -35 -4 -35 -20z"></path><path id="p10Q3GBTME" d="M2008 2393 c-10 -2 -18 -11 -18 -19 0 -8 -10 -14 -25 -14 -20 0 -25 -5 -25 -25 0 -20 -5 -25 -25 -25 -22 0 -25 -4 -25 -35 0 -41 11 -45 30 -9 20 37 78 80 128 94 51 16 57 41 10 39 -18 -1 -41 -3 -50 -6z"></path><path id="p15Xh9RLpv" d="M2130 2388 c0 -9 17 -20 43 -27 51 -16 100 -51 124 -91 23 -39 33 -38 33 5 0 32 -2 35 -30 35 -27 0 -30 3 -30 30 0 23 -5 30 -19 30 -11 0 -21 5 -23 11 -2 6 -25 13 -51 16 -37 4 -47 3 -47 -9z"></path><path id="pIRZNDKZk" d="M3180 2371 c0 -4 22 -22 48 -38 91 -57 127 -181 82 -282 -25 -54 -25 -51 5 -51 21 0 26 8 40 52 8 28 15 70 15 93 0 49 -27 145 -40 145 -6 0 -10 7 -10 15 0 8 -9 15 -20 15 -13 0 -20 7 -20 20 0 11 -7 20 -15 20 -8 0 -15 5 -15 10 0 6 -16 10 -35 10 -19 0 -35 -4 -35 -9z"></path><path id="p1Aej6L5kA" d="M927 2343 c-4 -3 -7 -15 -7 -25 0 -10 -7 -18 -15 -18 -8 0 -15 -9 -15 -19 0 -11 -5 -21 -11 -23 -6 -2 -13 -25 -16 -51 -5 -37 -3 -47 9 -47 10 0 20 17 28 46 8 27 30 65 57 95 l45 49 -34 0 c-19 0 -38 -3 -41 -7z"></path><path id="pfWeV4ceR" d="M2870 2265 c0 -14 -4 -25 -10 -25 -5 0 -10 -18 -10 -40 0 -56 22 -52 41 8 9 26 19 55 23 65 7 14 3 17 -18 17 -21 0 -26 -5 -26 -25z"></path><path id="pFWVEwybz" d="M2334 2145 c0 -56 2 -65 18 -65 16 0 18 9 18 65 0 56 -2 65 -18 65 -16 0 -18 -9 -18 -65z"></path><path id="pnG11gT6q" d="M1340 2145 c0 -38 3 -45 20 -45 17 0 20 7 20 45 0 38 -3 45 -20 45 -17 0 -20 -7 -20 -45z"></path><path id="pGRrwHUzI" d="M1850 2105 c0 -28 4 -35 20 -35 21 0 24 10 14 48 -10 36 -34 27 -34 -13z"></path><path id="ph0ExggeN" d="M860 2095 c0 -24 5 -35 15 -35 10 0 15 -11 15 -35 0 -19 3 -35 8 -35 4 0 12 -10 17 -22 7 -17 20 -24 49 -26 l39 -3 -47 52 c-29 33 -50 67 -57 95 -14 54 -39 60 -39 9z"></path><path id="p19AUwjWK7" d="M30 2085 c0 -28 4 -35 20 -35 16 0 20 7 20 35 0 28 -4 35 -20 35 -16 0 -20 -7 -20 -35z"></path><path id="pOCdCaIjU" d="M2850 2091 c0 -35 19 -91 31 -91 5 0 9 -7 9 -15 0 -8 9 -15 20 -15 13 0 20 -7 20 -20 0 -11 5 -20 11 -20 6 0 17 -7 25 -15 17 -16 84 -21 84 -6 0 5 -25 23 -54 40 -56 31 -97 84 -111 144 -9 36 -35 36 -35 -2z"></path><path id="p1BT5Ytdhv" d="M1950 1950 c0 -27 3 -30 30 -30 20 0 30 -5 30 -15 0 -10 11 -15 35 -15 43 0 48 25 8 35 -16 3 -45 17 -65 31 l-38 24 0 -30z"></path><path id="p3Svhr7cL" d="M2233 1957 c-42 -28 -41 -37 2 -37 32 0 35 2 35 30 0 17 -1 30 -2 29 -2 0 -18 -10 -35 -22z"></path><path id="p1D9ABVWOV" d="M1208 1939 c-45 -23 -49 -39 -9 -39 45 0 61 10 61 36 0 29 -4 29 -52 3z"></path><path id="pIND3WXxk" d="M3198 1939 c-45 -23 -49 -39 -9 -39 45 0 61 10 61 36 0 29 -4 29 -52 3z"></path><path id="pDhKilwAj" d="M1020 1914 c0 -21 5 -24 35 -24 22 0 35 5 35 13 0 8 -16 18 -35 24 -33 11 -35 10 -35 -13z"></path><path id="pRE3Hg3Wg" d="M110 1588 c0 -6 10 -42 22 -79 18 -57 25 -68 42 -66 12 1 27 8 35 15 7 7 21 12 30 10 16 -3 51 20 51 34 0 5 -16 8 -35 8 -19 0 -35 -4 -35 -10 0 -5 -8 -10 -18 -10 -15 0 -22 13 -31 55 -11 48 -15 55 -37 55 -13 0 -24 -5 -24 -12z"></path><path id="pbKpyf5hB" d="M592 1203 c35 -74 48 -81 48 -28 0 31 -3 35 -26 35 -14 0 -24 -3 -22 -7z"></path><path id="p6ZL2HlIu" d="M780 940 c31 -44 40 -45 40 -6 0 33 -2 36 -31 36 l-30 0 21 -30z"></path><path id="pTJQc0PRS" d="M3357 893 c-4 -3 -7 -19 -7 -35 0 -28 1 -28 21 -14 11 8 27 24 35 35 14 20 14 21 -14 21 -16 0 -32 -3 -35 -7z"></path><path id="p1E8Cq7Mz3" d="M3140 700 c0 -5 -7 -10 -15 -10 -8 0 -15 -9 -15 -20 0 -16 -7 -20 -30 -20 -16 0 -30 -4 -30 -9 0 -5 -11 -12 -25 -15 -18 -5 -25 -13 -25 -31 0 -22 3 -24 25 -15 14 5 25 7 25 3 0 -4 7 2 15 13 8 10 15 16 15 12 0 -4 11 4 25 18 14 14 29 23 33 21 4 -2 23 12 42 30 l35 33 -37 0 c-21 0 -38 -4 -38 -10z"></path><path id="p18Fz6Cctq" d="M665 640 c3 -5 19 -19 35 -30 l30 -21 0 30 c0 29 -3 31 -36 31 -20 0 -33 -4 -29 -10z"></path><path id="pd6CzBXLk" d="M740 576 c0 -10 153 -129 243 -190 90 -59 223 -134 280 -155 24 -10 27 -8 27 12 0 18 -15 30 -75 60 -42 20 -84 37 -95 37 -11 0 -20 7 -20 15 0 9 -9 15 -25 15 -16 0 -25 6 -25 15 0 8 -7 15 -15 15 -8 0 -15 5 -15 10 0 6 -7 10 -15 10 -8 0 -15 5 -15 10 0 6 -9 10 -20 10 -11 0 -20 7 -20 15 0 8 -6 15 -14 15 -8 0 -16 7 -20 15 -3 8 -15 15 -26 15 -11 0 -20 7 -20 15 0 9 -9 15 -24 15 -18 0 -25 6 -28 23 -2 18 -10 23 -40 25 -21 2 -38 1 -38 -2z"></path><path id="pWrTbjFDu" d="M1430 433 l0 -37 20 22 c21 23 50 30 50 12 0 -5 13 -8 30 -7 24 2 30 7 30 25 0 21 -4 22 -65 22 l-65 0 0 -37z"></path><path id="pqKzh65Ec" d="M1600 425 c0 -3 9 -14 20 -25 14 -14 28 -18 44 -14 14 3 29 0 39 -11 21 -21 67 -10 67 16 0 15 -7 19 -40 19 -22 0 -40 5 -40 10 0 6 -20 10 -45 10 -25 0 -45 -2 -45 -5z"></path><path id="pPn6hIo9v" d="M1780 376 c0 -9 7 -16 15 -16 8 0 15 -5 15 -11 0 -7 11 -8 30 -4 19 4 30 3 30 -5 0 -7 12 -9 36 -4 23 4 39 3 43 -4 11 -19 81 -3 81 18 0 14 -12 18 -62 23 -35 4 -91 9 -125 13 -54 6 -63 5 -63 -10z"></path><path id="p45xqBEBD" d="M2180 345 c0 -8 7 -15 15 -15 8 0 15 -5 15 -11 0 -5 10 -9 22 -7 17 2 24 -4 31 -29 13 -45 37 -43 37 2 0 24 -5 35 -15 35 -8 0 -15 9 -15 20 0 17 -7 20 -45 20 -33 0 -45 -4 -45 -15z"></path><path id="p12PDUtYms" d="M2915 250 c-94 -42 -293 -110 -320 -110 -8 0 -15 -9 -15 -20 0 -11 6 -20 14 -20 47 0 379 117 447 157 82 48 -12 43 -126 -7z"></path><path id="pMU8Fqi0v" d="M2433 107 c-52 -9 -63 -14 -63 -30 0 -16 5 -18 43 -12 109 16 147 27 147 41 0 16 -31 16 -127 1z"></path><path id="pgKhVj88h" d="M2290 70 c0 -21 10 -24 48 -14 36 10 27 34 -13 34 -28 0 -35 -4 -35 -20z"></path></g></g><g id="l4gDnHAdNXhtV5u0nvCxoiv" fill="rgb(135,135,135)" style="transform: none;"><g><path id="pXTUe0gso" d="M3530 4230 c-245 -93 -457 -169 -471 -170 -14 0 -83 23 -153 50 -253 101 -509 150 -780 150 -568 0 -1080 -213 -1481 -615 -319 -320 -510 -690 -591 -1150 -23 -125 -26 -508 -6 -625 25 -147 65 -309 75 -303 5 3 6 -4 2 -17 -5 -17 -4 -21 6 -15 9 6 11 2 7 -13 -4 -12 -3 -22 0 -22 4 0 8 -12 8 -26 2 -29 15 -45 21 -26 3 6 10 9 15 5 8 -4 9 2 4 18 -72 243 -113 524 -103 709 4 77 2 97 -11 106 -13 9 -13 23 -3 100 27 213 88 404 207 651 43 90 59 114 79 119 20 5 25 12 25 38 0 24 17 58 62 122 33 49 64 91 67 94 3 3 31 34 61 70 259 307 636 547 1024 650 201 54 328 71 524 71 265 0 495 -48 765 -157 166 -67 137 -73 663 127 247 94 452 176 456 182 14 22 8 47 -9 47 -10 -1 -218 -77 -463 -170z"></path><path id="p9PUF3Jaa" d="M4090 4372 c0 -19 7 -30 23 -37 12 -6 31 -29 42 -52 26 -55 55 -59 55 -8 0 65 -47 125 -97 125 -18 0 -23 -6 -23 -28z"></path><path id="p1CeShVGU4" d="M3941 3276 c-29 -118 -27 -160 10 -235 49 -98 96 -217 126 -323 18 -61 34 -98 43 -101 43 -11 85 -425 68 -666 -5 -63 -6 -116 -4 -119 3 -2 10 16 17 39 21 72 18 510 -4 629 -40 213 -92 378 -174 552 -51 109 -54 120 -46 165 4 26 7 58 7 70 0 12 3 20 7 17 4 -2 9 7 11 21 3 14 2 25 -3 25 -4 0 -14 2 -22 6 -11 4 -19 -15 -36 -80z"></path><path id="pqmeNI9sg" d="M4167 1781 c-3 -12 -1 -21 3 -21 15 0 23 21 12 32 -6 6 -11 2 -15 -11z"></path><path id="pw9vR1rD1" d="M4110 1648 c-39 -157 -166 -473 -207 -516 -7 -7 -13 -24 -13 -38 0 -15 -6 -24 -15 -24 -8 0 -15 -7 -15 -15 0 -8 -4 -15 -10 -15 -5 0 -10 -7 -10 -15 0 -8 -4 -15 -10 -15 -5 0 -10 -7 -10 -15 0 -8 -4 -15 -10 -15 -5 0 -10 -13 -10 -30 0 -16 5 -30 10 -30 18 0 128 178 196 316 54 110 135 328 158 427 6 24 4 27 -18 27 -21 0 -27 -7 -36 -42z"></path></g></g><g id="l7HHghlyhCkmVPGmcRKXFj6" fill="rgb(96,119,151)" style="transform: none;"><g><path id="pkarUQWqb" d="M3970 4373 c-54 -19 -60 -26 -60 -80 0 -47 8 -54 27 -24 8 12 34 24 68 32 67 15 124 2 153 -36 11 -14 24 -25 30 -25 14 0 26 54 13 58 -6 2 -9 8 -5 13 3 5 0 9 -7 9 -7 0 -9 3 -6 6 7 8 -36 44 -52 44 -6 0 -11 5 -11 10 0 15 -100 11 -150 -7z"></path><path id="pWEszP158" d="M1725 4190 c-258 -46 -522 -145 -685 -255 -30 -20 -68 -44 -83 -52 -26 -13 -28 -18 -25 -61 3 -43 6 -47 30 -50 22 -3 26 0 21 17 -4 16 10 28 74 66 187 110 392 191 623 244 69 16 142 34 163 39 33 9 37 8 37 -9 0 -10 5 -19 10 -19 6 0 10 23 10 50 l0 50 -37 -1 c-21 0 -83 -9 -138 -19z"></path><path id="p13iwZcWvR" d="M2707 4123 c-11 -10 -8 -93 3 -93 6 0 10 7 10 16 0 22 24 15 179 -47 68 -27 134 -49 147 -49 13 0 75 20 138 44 169 66 182 68 194 42 9 -18 11 -16 11 19 2 75 -38 83 -164 34 -44 -17 -102 -40 -129 -50 l-49 -18 -137 54 c-127 51 -187 65 -203 48z"></path><path id="p2JJRsyyx" d="M257 3088 c-82 -166 -155 -371 -130 -366 10 2 29 34 50 88 40 104 150 325 169 341 8 6 25 12 39 12 19 0 25 5 25 22 0 25 -17 35 -60 35 -26 0 -33 -9 -93 -132z"></path><path id="phuivjPHg" d="M96 2658 c-11 -54 15 -50 28 5 5 19 3 27 -8 27 -7 0 -16 -14 -20 -32z"></path><path id="plWw7kPds" d="M4090 2642 c0 -13 9 -21 26 -25 21 -4 25 -1 22 17 -4 28 -48 36 -48 8z"></path><path id="pvOih2ANP" d="M74 1783 c17 -117 48 -223 66 -223 15 0 13 34 -12 158 -19 95 -25 112 -41 112 -17 0 -19 -5 -13 -47z"></path><path id="pLbNLCHTa" d="M4087 1587 c-16 -56 -44 -143 -63 -193 -61 -164 -35 -202 29 -43 39 96 97 288 97 321 0 10 -7 18 -17 18 -14 0 -24 -23 -46 -103z"></path><path id="pUxj6H9GD" d="M3910 1125 c0 -28 -4 -35 -20 -35 -11 0 -20 -7 -20 -15 0 -8 -4 -15 -10 -15 -5 0 -10 -16 -10 -35 0 -19 4 -35 8 -35 8 0 102 151 102 164 0 3 -11 6 -25 6 -22 0 -25 -4 -25 -35z"></path></g></g><g id="l66obiFu4SE68GzFQJca1kQ" fill="rgb(64,114,184)" style="transform: none;"><g><path id="pWpPt2him" d="M2640 3801 c0 -39 1 -39 50 -52 28 -7 50 -16 50 -21 0 -4 5 -8 11 -8 7 0 54 -20 107 -45 103 -49 172 -60 172 -27 -1 19 -121 79 -275 137 -49 18 -91 38 -93 44 -8 25 -22 8 -22 -28z"></path><path id="pvdwVscgw" d="M3361 3786 c-71 -28 -77 -46 -16 -46 51 0 78 18 73 49 -3 19 -5 19 -57 -3z"></path><path id="p5OjF9hIP" d="M3163 3711 c-97 -36 -123 -50 -123 -65 0 -16 6 -18 44 -14 25 3 52 13 61 22 9 9 30 16 46 16 16 0 29 5 29 10 0 6 9 10 21 10 27 0 51 25 47 48 -3 17 -14 15 -125 -27z"></path><path id="p16AmBAWfg" d="M3130 2387 c0 -7 23 -20 50 -29 l50 -16 0 23 c0 15 -7 25 -22 29 -39 10 -78 7 -78 -7z"></path><path id="pvwIABLgr" d="M976 2375 c-8 -8 -19 -15 -25 -15 -6 0 -11 -7 -11 -15 0 -8 -7 -15 -16 -15 -9 0 -18 -9 -21 -20 -3 -11 -9 -20 -13 -20 -11 0 -30 -57 -30 -91 0 -45 23 -34 42 19 21 58 74 116 123 133 19 7 35 19 35 26 0 18 -65 17 -84 -2z"></path><path id="pnpWVvP04" d="M1950 2340 l0 -30 35 22 c44 29 44 38 0 38 -32 0 -35 -2 -35 -30z"></path><path id="pmE3Fg9Px" d="M3292 2275 c29 -44 38 -44 38 0 0 32 -2 35 -30 35 l-30 0 22 -35z"></path><path id="p188YTLiGZ" d="M1871 2273 c-7 -15 -15 -49 -18 -75 -5 -39 -3 -48 10 -48 9 0 18 13 22 33 4 17 17 51 30 75 l24 42 -28 0 c-20 0 -31 -7 -40 -27z"></path><path id="pwkj2fAcx" d="M2307 2255 c29 -52 43 -57 43 -16 0 46 -10 61 -40 61 l-29 0 26 -45z"></path><path id="pSm1BhMPL" d="M2860 2234 c0 -44 18 -42 37 4 13 31 12 32 -12 32 -22 0 -25 -4 -25 -36z"></path><path id="p12Dk4BoQx" d="M1336 2199 c36 -136 -71 -279 -208 -279 -42 0 -48 -2 -48 -21 0 -20 4 -21 53 -15 28 3 60 6 70 6 9 0 17 7 17 15 0 10 10 15 30 15 27 0 30 3 30 30 0 27 3 30 30 30 27 0 30 3 30 30 0 19 5 30 14 30 15 0 26 43 26 105 0 75 -10 105 -35 105 -22 0 -22 -1 -9 -51z"></path><path id="pw1O3BxRE" d="M3334 2174 c11 -58 -18 -138 -68 -188 -53 -53 -99 -69 -181 -64 -117 7 -196 87 -203 204 -4 55 -7 64 -23 64 -21 0 -24 -22 -13 -104 4 -29 12 -46 20 -46 9 0 14 -11 14 -30 0 -27 3 -30 30 -30 27 0 30 -3 30 -30 0 -27 3 -30 30 -30 19 0 30 -5 30 -14 0 -9 18 -15 53 -19 71 -9 157 2 157 19 0 9 11 14 30 14 27 0 30 3 30 30 0 27 3 30 30 30 20 0 30 5 30 15 0 8 4 15 9 15 13 0 31 82 31 144 0 50 -2 56 -21 56 -19 0 -20 -4 -15 -36z"></path><path id="p1CTtRKlnJ" d="M860 2091 c0 -35 19 -91 31 -91 5 0 9 -7 9 -15 0 -8 9 -15 20 -15 13 0 20 -7 20 -20 0 -11 5 -20 11 -20 6 0 17 -7 25 -15 17 -16 84 -21 84 -6 0 5 -25 23 -54 40 -56 31 -97 84 -111 144 -9 36 -35 36 -35 -2z"></path><path id="p6iHSPHs0" d="M1860 2071 c0 -45 10 -61 37 -61 14 0 23 3 21 8 -2 4 -10 24 -18 45 -17 44 -40 49 -40 8z"></path><path id="pYyhyxrcy" d="M2307 2035 l-26 -45 29 0 c30 0 40 15 40 61 0 41 -14 36 -43 -16z"></path><path id="p1BP8Y7skm" d="M2195 1935 c-16 -8 -51 -14 -77 -15 -42 0 -48 -3 -48 -21 0 -21 3 -21 60 -16 96 10 110 16 110 43 0 27 -3 28 -45 9z"></path><path id="p33lWBC3R" d="M3972 1293 c-7 -2 -26 -32 -42 -65 -17 -34 -60 -105 -95 -160 -36 -54 -65 -105 -65 -113 0 -12 28 -35 43 -35 13 0 170 267 202 343 15 36 15 37 -7 36 -13 0 -29 -3 -36 -6z"></path><path id="pzGQ7Kc8s" d="M682 673 l-24 -25 53 -47 c173 -152 326 -256 499 -340 69 -34 130 -61 136 -61 7 0 14 8 18 17 3 10 9 24 12 31 3 6 -1 12 -8 12 -29 0 -259 122 -370 197 -141 95 -269 199 -275 224 -7 24 -12 23 -41 -8z"></path><path id="pomryhAKQ" d="M3030 361 c0 -27 -6 -31 -87 -66 -49 -20 -101 -43 -118 -50 -52 -23 -128 -45 -151 -45 -13 0 -63 -9 -111 -21 -48 -11 -131 -26 -183 -33 l-95 -12 -3 -42 c-2 -23 0 -42 5 -42 35 1 232 34 305 51 176 41 483 160 493 191 7 19 -30 98 -45 98 -6 0 -10 -13 -10 -29z"></path></g></g><g id="l3cBmLIg4tNlYOOe7vjrBUA" fill="rgb(35,93,173)" style="transform: none;"><g><path id="p10TyEmlvp" d="M3854 4196 c-3 -19 -3 -48 1 -65 5 -24 3 -31 -9 -31 -12 0 -16 -10 -16 -34 0 -19 -4 -36 -9 -38 -4 -1 -18 -43 -30 -93 -12 -49 -29 -115 -36 -145 -8 -30 -14 -70 -15 -87 0 -18 -4 -33 -9 -33 -4 0 -13 -19 -18 -42 l-10 -43 -7 60 c-13 113 -48 250 -89 343 l-40 94 -61 -6 c-69 -5 -136 -16 -136 -22 0 -2 18 -49 41 -104 23 -55 38 -107 35 -115 -3 -8 -21 -23 -41 -32 -19 -9 -35 -21 -35 -25 0 -5 -4 -7 -9 -3 -12 7 -121 -34 -121 -45 0 -5 -6 -7 -14 -4 -7 3 -20 -2 -29 -10 -8 -8 -17 -12 -20 -9 -8 8 -67 -17 -67 -28 0 -5 -7 -6 -15 -3 -8 4 -15 2 -15 -2 0 -5 -26 -9 -58 -8 -45 1 -75 10 -143 43 -48 22 -92 41 -98 41 -6 0 -7 8 -4 17 5 13 2 15 -11 10 -10 -4 -35 -2 -57 4 -29 9 -39 18 -44 39 -5 24 24 145 54 224 7 16 10 30 9 31 -7 5 -231 55 -298 67 -80 14 -533 19 -546 6 -4 -4 -1 -55 6 -114 15 -131 12 -136 -106 -160 l-81 -16 -11 -112 c-20 -188 -20 -202 -12 -404 9 -211 21 -290 77 -503 35 -134 36 -137 73 -158 21 -11 45 -21 53 -21 8 0 17 -4 19 -9 6 -16 192 -66 358 -96 120 -21 430 -17 557 9 206 40 452 161 588 288 41 39 75 74 75 79 0 6 18 33 39 62 62 82 125 214 146 305 16 73 20 81 34 68 18 -15 137 -46 179 -46 16 0 31 -3 34 -6 3 -3 0 -29 -8 -57 -8 -29 -14 -69 -14 -89 0 -35 2 -38 28 -38 27 0 28 3 46 88 11 48 23 95 28 105 5 10 7 21 5 24 -3 2 -50 16 -104 29 -119 30 -150 42 -157 59 -3 8 38 184 89 392 52 208 95 384 95 391 0 7 -13 12 -30 12 -25 0 -30 -4 -36 -34z"></path><path id="pm88ps9E2" d="M1550 4141 c0 -10 9 -21 20 -24 11 -3 20 -1 20 4 0 5 7 9 15 9 8 0 15 7 15 15 0 10 -11 15 -35 15 -28 0 -35 -4 -35 -19z"></path><path id="pAZVOqX45" d="M1450 4111 c0 -25 30 -31 53 -11 26 22 21 30 -18 30 -28 0 -35 -4 -35 -19z"></path><path id="paoXhmLG3" d="M990 3885 c0 -19 4 -23 18 -18 9 4 26 15 36 25 19 18 19 18 -17 18 -33 0 -37 -3 -37 -25z"></path><path id="puwkfuCll" d="M1363 3740 c-51 -23 -58 -50 -12 -50 36 0 62 22 57 50 -3 19 -3 19 -45 0z"></path><path id="pkH0QwPqK" d="M1258 3688 c-46 -26 -49 -48 -9 -48 47 0 61 10 61 41 0 35 -4 35 -52 7z"></path><path id="pff5hG8nc" d="M3810 2510 c0 -38 2 -40 30 -40 28 0 30 2 30 40 0 38 -2 40 -30 40 -28 0 -30 -2 -30 -40z"></path><path id="pbnGEVuj0" d="M2040 2388 c0 -22 4 -23 55 -20 30 2 69 -1 85 -7 28 -9 30 -8 30 13 0 19 -7 24 -37 30 -21 3 -59 6 -85 6 -43 0 -48 -2 -48 -22z"></path><path id="pY2ZTD7oG" d="M3018 2403 c-22 -3 -28 -10 -28 -30 0 -22 3 -24 23 -18 12 4 46 9 75 12 42 4 52 9 52 24 0 16 -7 19 -47 18 -27 -1 -60 -4 -75 -6z"></path><path id="p14s6kCdrp" d="M3200 2363 c0 -5 16 -18 35 -31 l35 -22 0 30 c0 28 -3 30 -35 30 -19 0 -35 -3 -35 -7z"></path><path id="pzykdgenr" d="M1914 2336 c-3 -8 -4 -26 -2 -41 l3 -26 40 40 39 41 -37 0 c-23 0 -40 -5 -43 -14z"></path><path id="p6tyP01sI" d="M2265 2309 l40 -40 3 26 c6 43 -4 55 -45 55 l-37 0 39 -41z"></path><path id="p9Rya9kkB" d="M2860 2264 c0 -45 22 -43 51 4 l21 32 -36 0 c-35 0 -36 -1 -36 -36z"></path><path id="paxhRytM2" d="M850 2145 c0 -38 3 -45 20 -45 17 0 20 7 20 45 0 38 -3 45 -20 45 -17 0 -20 -7 -20 -45z"></path><path id="p1FHX55BJr" d="M1880 2025 c0 -24 5 -35 15 -35 8 0 15 -9 15 -20 0 -15 7 -20 25 -20 18 0 25 -5 25 -19 0 -21 19 -31 61 -31 40 0 36 16 -10 39 -36 19 -111 95 -111 113 0 4 -4 8 -10 8 -5 0 -10 -16 -10 -35z"></path><path id="pU7xiGfbt" d="M890 2015 c0 -32 2 -35 30 -35 l30 0 -22 35 c-29 44 -38 44 -38 0z"></path><path id="p1FHLKeMwt" d="M2223 1947 c-42 -28 -41 -37 2 -37 32 0 35 2 35 30 0 17 -1 30 -2 29 -2 0 -18 -10 -35 -22z"></path><path id="prbTdBtVz" d="M1010 1914 c0 -21 5 -24 35 -24 22 0 35 5 35 13 0 8 -16 18 -35 24 -33 11 -35 10 -35 -13z"></path><path id="p6vAlQGUh" d="M3040 1895 c0 -24 3 -25 55 -25 51 0 55 2 55 24 0 22 -4 24 -55 25 -52 0 -55 -1 -55 -24z"></path><path id="pMeG6JZfH" d="M4083 1613 c-7 -2 -13 -20 -13 -39 0 -27 4 -34 20 -34 20 0 40 33 40 66 0 14 -23 17 -47 7z"></path><path id="p9ZbUo0x4" d="M144 1498 c6 -39 26 -78 26 -49 0 7 4 10 9 6 18 -10 22 15 10 50 -9 23 -19 35 -32 35 -16 0 -18 -5 -13 -42z"></path><path id="p1D2gUxK5a" d="M4054 1512 c-6 -4 -32 -57 -58 -118 -26 -62 -76 -163 -111 -225 -36 -62 -65 -117 -65 -121 0 -4 -4 -8 -10 -8 -5 0 -10 -7 -10 -15 0 -8 -4 -15 -10 -15 -5 0 -10 -5 -10 -11 0 -7 -8 -18 -17 -25 -17 -12 -17 -14 2 -28 11 -8 22 -15 25 -16 5 0 128 188 149 228 6 12 19 22 29 22 13 0 14 2 3 9 -16 10 -1 43 34 76 20 20 80 166 92 228 4 22 2 27 -13 27 -11 0 -24 -4 -30 -8z"></path><path id="pozjyqA6e" d="M694 675 c-10 -25 2 -42 81 -107 169 -139 505 -338 572 -338 29 0 51 43 24 48 -48 9 -204 83 -279 133 -24 16 -46 29 -51 29 -4 0 -26 16 -48 35 -23 19 -44 35 -48 35 -3 0 -11 5 -18 10 -21 18 -53 44 -93 75 -21 17 -55 45 -75 63 -40 35 -57 40 -65 17z"></path><path id="p12GxaYMQL" d="M3028 352 c-47 -48 -380 -165 -565 -198 -60 -11 -103 -23 -103 -30 0 -15 38 -25 46 -12 4 5 19 7 35 4 15 -3 31 -1 34 5 4 5 15 7 25 4 10 -3 21 -1 25 5 4 6 15 8 26 5 11 -4 19 -2 19 5 0 7 8 9 19 5 11 -3 22 -2 25 4 3 5 15 7 26 4 12 -3 20 0 20 6 0 7 5 9 10 6 11 -7 131 26 185 50 17 7 69 30 117 50 102 43 115 55 96 84 -15 25 -18 25 -40 3z"></path><path id="p21nYv44x" d="M2280 116 c0 -22 17 -28 40 -14 28 18 25 28 -10 28 -19 0 -30 -5 -30 -14z"></path></g></g><g id="l7dgmvqDYXDgBgdSuBSi4xB" fill="rgb(97,97,97)" style="transform: none;"><g><path id="pmp34jgYZ" d="M3973 4386 c-9 -17 -896 -356 -930 -356 -12 0 -62 16 -110 36 -316 131 -624 184 -948 163 -164 -10 -238 -22 -400 -64 -403 -104 -780 -341 -1045 -655 -30 -36 -58 -67 -61 -70 -4 -3 -46 -62 -93 -133 -106 -156 -181 -311 -240 -488 -55 -165 -63 -203 -45 -197 8 3 14 11 15 19 0 8 6 28 13 44 7 17 14 41 16 55 2 14 4 26 6 28 1 1 3 7 4 12 1 6 3 11 4 13 2 1 4 13 7 27 2 14 8 34 13 45 5 11 24 52 42 90 18 39 33 73 33 77 1 4 21 41 46 82 37 63 48 74 65 70 17 -4 28 7 61 58 108 169 302 376 465 496 62 46 77 61 73 78 -4 16 6 28 48 55 85 57 184 109 191 102 4 -3 7 -1 7 5 0 10 88 49 103 44 4 -1 7 3 7 9 0 5 4 8 9 5 5 -4 11 -1 13 4 2 6 13 12 26 13 12 0 22 5 22 10 0 5 7 7 15 3 8 -3 15 -1 15 5 0 6 7 9 15 5 8 -3 15 -2 15 3 0 10 71 32 83 24 5 -3 12 0 16 6 4 6 61 22 127 35 171 34 194 37 194 23 0 -9 62 -12 243 -13 260 0 348 -10 521 -60 79 -22 89 -23 100 -9 10 14 17 14 69 -4 32 -11 101 -39 153 -62 94 -41 95 -41 132 -26 20 9 84 34 141 57 96 37 105 39 122 24 13 -12 22 -13 37 -5 10 6 120 48 243 95 317 120 307 115 313 142 5 18 19 27 62 40 76 22 115 13 157 -36 37 -43 47 -49 47 -25 0 8 -5 15 -11 15 -5 0 -7 5 -4 10 3 6 1 10 -6 10 -7 0 -9 3 -6 6 7 8 -36 44 -52 44 -6 0 -11 7 -11 15 0 21 -135 22 -147 1z"></path><path id="pKUjxWYCR" d="M3910 3136 c0 -19 25 -85 58 -157 58 -123 102 -235 122 -316 8 -33 15 -41 31 -40 23 2 22 12 -22 151 -21 68 -25 92 -16 98 9 6 8 8 -3 8 -8 0 -23 21 -34 48 -10 26 -31 73 -47 104 -15 31 -25 58 -23 61 3 2 -2 10 -11 17 -8 7 -15 20 -15 30 0 10 -9 20 -20 23 -17 4 -20 0 -20 -27z"></path><path id="pKYRVFIVO" d="M80 2594 c0 -9 5 -14 12 -12 18 6 21 28 4 28 -9 0 -16 -7 -16 -16z"></path></g></g><g id="l5ZRjHecSh3J9CUvzDbNXV1" fill="rgb(19,81,167)" style="transform: none;"><g><path id="p1RUQnHAv" d="M3862 4257 c-6 -7 -123 -50 -260 -97 l-250 -84 20 -28 c21 -30 46 -35 80 -17 11 6 36 12 54 13 33 1 34 0 73 -89 139 -324 106 -670 -90 -932 -21 -29 -39 -56 -39 -62 0 -5 -34 -40 -75 -79 -136 -127 -383 -248 -588 -288 -127 -25 -381 -30 -497 -9 -166 30 -352 80 -358 96 -2 5 -11 9 -19 9 -24 0 -93 42 -86 53 3 5 1 12 -4 16 -20 13 -92 327 -107 468 -16 147 -5 472 19 588 7 34 -9 48 -44 40 -22 -5 -31 -12 -31 -26 0 -10 7 -19 15 -19 12 0 14 -8 8 -42 -5 -24 -8 -171 -8 -328 1 -232 4 -304 19 -385 42 -230 106 -431 197 -622 27 -57 49 -107 49 -112 0 -5 30 6 68 25 59 31 73 34 117 29 146 -18 236 -143 205 -283 -10 -44 -22 -66 -61 -107 -27 -29 -49 -55 -49 -58 0 -4 15 -7 33 -7 39 0 77 24 77 49 0 17 16 18 260 17 143 -1 260 -4 260 -8 0 -5 6 -8 14 -8 7 0 16 -9 19 -20 4 -15 14 -20 36 -20 24 0 31 -4 31 -20 0 -17 7 -20 40 -20 29 0 40 -4 40 -15 0 -12 14 -15 65 -15 37 0 65 4 65 10 0 6 16 10 36 10 27 0 37 5 41 19 3 12 15 21 32 23 15 2 30 12 36 26 5 12 15 22 22 22 7 0 13 9 13 20 0 11 4 20 9 20 6 0 13 21 17 46 5 37 11 47 33 55 96 37 325 167 395 226 l30 25 9 -24 c4 -12 11 -69 14 -125 l6 -103 29 0 c28 0 28 0 28 64 0 67 -13 183 -31 274 -7 34 -15 52 -25 52 -8 0 -14 5 -14 10 0 6 7 10 15 10 8 0 15 7 15 15 0 22 103 61 213 80 42 7 53 35 13 35 -22 0 -25 5 -31 58 -3 31 -15 80 -25 107 -11 28 -20 56 -20 63 0 6 -18 51 -40 98 -41 89 -48 114 -30 114 7 0 7 6 0 19 -5 11 -7 27 -4 35 4 11 1 16 -10 16 -20 0 -20 -1 4 90 22 87 16 102 -44 102 -20 0 -36 3 -36 7 0 3 -17 7 -37 8 -21 1 -39 6 -41 11 -2 6 -11 8 -20 5 -21 -5 -61 35 -46 45 6 4 13 15 17 24 4 12 2 15 -9 11 -7 -3 -14 0 -14 6 0 6 7 11 15 11 8 0 15 5 15 10 0 6 -4 10 -10 10 -5 0 -10 5 -10 10 0 6 6 10 14 10 8 0 16 7 19 14 4 10 1 13 -9 9 -7 -3 -14 0 -14 6 0 6 6 11 14 11 8 0 16 7 19 14 4 10 1 13 -9 9 -7 -3 -14 0 -14 6 0 6 6 11 14 11 8 0 16 7 19 14 4 10 1 13 -9 9 -7 -3 -14 0 -14 6 0 6 6 11 14 11 17 0 32 53 17 58 -16 5 -13 22 4 22 8 0 15 5 15 10 0 6 -4 10 -10 10 -5 0 -10 5 -10 10 0 6 7 10 15 10 8 0 15 5 15 10 0 6 -4 10 -10 10 -5 0 -10 7 -10 15 0 8 8 15 18 15 14 0 15 2 2 10 -13 8 -12 10 3 10 20 0 24 36 5 43 -8 3 -6 6 5 6 18 1 25 21 7 21 -5 0 -10 5 -10 10 0 6 6 10 14 10 8 0 16 7 19 14 4 10 1 13 -9 9 -7 -3 -14 0 -14 6 0 6 7 11 15 11 8 0 15 5 15 10 0 6 -4 10 -10 10 -5 0 -10 5 -10 10 0 6 7 10 15 10 20 0 32 50 14 61 -11 7 -11 9 2 9 10 0 19 15 26 45 9 39 8 45 -6 46 -12 0 -11 2 4 9 11 5 14 9 8 9 -18 1 -16 21 1 21 13 0 26 28 26 58 0 16 -54 16 -68 -1z m-657 -1906 c54 -24 100 -79 121 -145 15 -47 16 -63 5 -109 -19 -89 -113 -177 -186 -177 -14 0 -25 -4 -25 -8 0 -4 -11 -9 -25 -10 -14 -1 -25 3 -25 8 0 6 -7 10 -15 10 -23 0 -76 29 -108 59 -61 56 -84 139 -62 223 7 29 11 56 9 60 -3 5 -1 8 4 8 5 0 28 18 52 40 24 22 49 40 57 40 7 0 13 4 13 9 0 25 121 19 185 -8z"></path><path id="paQ5akY24" d="M1922 4173 c-43 -3 -53 -7 -48 -19 3 -9 6 -19 6 -22 0 -4 102 -7 227 -7 234 0 363 -15 508 -60 72 -22 104 -20 114 8 7 17 5 23 -8 25 -9 2 -56 12 -106 23 -49 12 -130 27 -180 35 -90 15 -414 26 -513 17z"></path><path id="pkqvhwUG6" d="M1445 3774 c-44 -19 -82 -39 -83 -44 -2 -6 -8 -8 -13 -5 -11 8 -69 -23 -69 -36 0 -6 -4 -7 -10 -4 -5 3 -10 1 -10 -4 0 -6 -4 -10 -8 -8 -4 1 -36 -11 -69 -28 -73 -35 -85 -65 -28 -65 28 0 35 4 35 20 0 16 7 20 35 20 28 0 35 4 35 20 0 15 7 20 30 20 32 0 80 19 80 32 0 4 9 8 20 8 24 0 70 21 70 32 0 4 11 8 25 8 14 0 25 5 25 10 0 6 11 10 25 10 20 0 25 5 25 25 0 33 -16 32 -115 -11z"></path><path id="pmGY9KD7S" d="M990 3725 c0 -32 2 -35 30 -35 l30 0 -22 35 c-29 44 -38 44 -38 0z"></path><path id="pSGNNu7oe" d="M98 2282 c-28 -5 -22 -32 7 -32 14 0 25 -4 25 -10 0 -11 62 -13 98 -4 25 7 31 34 7 34 -8 0 -18 1 -22 2 -23 6 -100 13 -115 10z"></path><path id="pljlqrLOk" d="M3850 2015 c0 -51 2 -55 24 -55 26 0 36 21 36 78 0 29 -3 32 -30 32 -30 0 -30 -1 -30 -55z"></path><path id="pFIZEWDOl" d="M3853 1933 c-7 -2 -13 -20 -13 -39 0 -29 3 -34 24 -34 23 0 36 21 36 63 0 17 -21 21 -47 10z"></path><path id="plpDL5U1X" d="M1050 1895 c0 -24 3 -25 55 -25 51 0 55 2 55 24 0 22 -4 24 -55 25 -52 0 -55 -1 -55 -24z"></path><path id="pqnnh1vLB" d="M3860 1735 c0 -38 3 -45 23 -49 89 -19 133 -26 162 -26 19 0 35 -4 35 -9 0 -33 -98 -288 -151 -393 -16 -32 -29 -71 -29 -88 0 -23 -4 -30 -20 -30 -11 0 -20 -7 -20 -15 0 -8 -4 -15 -10 -15 -5 0 -12 -11 -16 -25 -3 -14 -10 -25 -15 -25 -5 0 -9 -7 -9 -15 0 -8 -4 -15 -10 -15 -5 0 -10 -7 -10 -15 0 -8 -4 -15 -10 -15 -5 0 -10 -14 -10 -31 0 -24 3 -30 16 -25 9 3 18 6 20 6 2 0 4 7 4 15 0 8 5 15 10 15 6 0 10 7 10 15 0 8 3 15 8 15 4 0 16 18 26 40 10 22 26 47 36 57 9 10 17 22 17 26 1 4 21 47 46 95 24 48 55 113 67 145 14 34 30 57 39 58 11 0 12 2 4 6 -19 7 -16 23 5 24 11 0 12 2 4 6 -10 4 -10 7 1 17 23 18 40 78 25 88 -11 6 -10 8 0 8 13 0 25 25 36 76 l7 31 -118 23 c-90 18 -123 29 -141 47 -12 13 -25 23 -27 23 -3 0 -5 -20 -5 -45z"></path><path id="pczaJzjia" d="M105 1653 c14 -74 56 -191 70 -197 22 -8 19 25 -12 136 -23 79 -32 98 -47 98 -16 0 -17 -5 -11 -37z"></path><path id="p1AchnvIie" d="M567 1241 c3 -11 14 -27 24 -37 18 -17 19 -16 19 19 0 32 -3 37 -24 37 -19 0 -23 -4 -19 -19z"></path><path id="pO8HzBQZ" d="M713 700 c-13 -11 -23 -25 -23 -29 0 -9 52 -58 114 -106 40 -31 72 -57 93 -75 7 -5 15 -10 18 -10 4 0 25 -16 48 -35 22 -19 44 -35 48 -35 5 0 27 -13 51 -29 24 -15 81 -47 128 -70 47 -23 98 -49 113 -57 40 -20 67 -18 67 5 0 20 -18 31 -51 31 -10 0 -19 4 -19 8 0 4 -42 28 -92 52 -51 25 -99 51 -106 58 -7 6 -24 12 -38 12 -14 0 -24 6 -24 14 0 19 -44 46 -75 46 -18 0 -25 5 -25 20 0 13 -7 20 -20 20 -11 0 -20 7 -20 15 0 9 -9 15 -25 15 -18 0 -25 5 -25 20 0 16 -7 20 -30 20 -25 0 -30 4 -30 24 0 14 -10 33 -24 43 -13 11 -26 30 -28 42 l-3 22 -22 -21z"></path><path id="pJo9eezmu" d="M2993 333 c-7 -2 -13 -11 -13 -18 0 -7 -16 -15 -37 -18 -21 -2 -84 -22 -140 -43 -76 -29 -103 -44 -103 -56 0 -10 7 -18 15 -18 43 0 355 133 355 151 0 9 -56 11 -77 2z"></path><path id="p15LGgw83U" d="M2583 183 c-31 -6 -31 -41 0 -37 61 8 87 19 87 35 0 9 -45 10 -87 2z"></path></g></g><g id="l6BkbrhwQAjk2LkMlijRini" fill="rgb(3,67,157)" style="transform: none;"><g><path id="p19jn4LqiM" d="M3810 4274 c-46 -19 -87 -38 -90 -43 -6 -9 -75 -37 -250 -102 -63 -23 -117 -44 -119 -46 -2 -1 4 -12 14 -23 12 -13 23 -17 34 -11 9 4 120 43 246 86 127 42 237 84 246 91 8 8 20 14 26 14 10 0 23 31 23 58 0 20 -40 13 -130 -24z"></path><path id="pBeXSYJwk" d="M1870 4161 c0 -17 26 -30 48 -24 36 9 27 33 -13 33 -19 0 -35 -4 -35 -9z"></path><path id="pFxvJfCqA" d="M2650 4086 c0 -13 28 -26 58 -26 6 0 12 9 12 20 0 16 -7 20 -35 20 -23 0 -35 -5 -35 -14z"></path><path id="pzZYlATwJ" d="M1700 3849 c0 -5 -5 -7 -10 -4 -13 8 -160 -35 -160 -46 0 -5 -6 -6 -14 -3 -7 3 -20 -1 -27 -9 -8 -7 -19 -12 -25 -10 -7 2 -18 -3 -27 -11 -8 -8 -17 -12 -21 -9 -3 4 -6 1 -6 -6 0 -7 -4 -9 -10 -6 -5 3 -10 2 -10 -4 0 -6 -7 -8 -15 -5 -8 4 -15 1 -15 -6 0 -6 -4 -8 -10 -5 -5 3 -10 1 -10 -5 0 -6 -4 -8 -10 -5 -5 3 -10 1 -10 -5 0 -6 -4 -8 -10 -5 -5 3 -10 1 -10 -5 0 -6 -4 -8 -10 -5 -5 3 -10 1 -10 -5 0 -6 -4 -8 -10 -5 -5 3 -10 1 -10 -5 0 -6 -5 -8 -10 -5 -6 3 -13 0 -16 -9 -3 -8 -11 -13 -18 -10 -7 3 -24 -6 -38 -19 -23 -21 -29 -23 -58 -13 -26 9 -48 33 -99 108 -36 54 -69 98 -72 98 -14 0 -182 -134 -263 -211 -95 -89 -224 -244 -293 -351 -24 -36 -43 -69 -43 -71 0 -3 17 -16 38 -28 113 -69 171 -111 177 -129 4 -14 -5 -45 -26 -88 -98 -204 -149 -355 -180 -537 -12 -66 -26 -126 -32 -133 -7 -9 -30 -13 -74 -10 -35 2 -63 0 -63 -4 0 -5 -7 -8 -15 -8 -8 0 -15 4 -15 9 0 5 -22 11 -49 13 -61 4 -61 4 -61 -143 0 -127 14 -283 36 -394 22 -106 73 -278 86 -286 6 -4 56 8 111 27 56 19 111 34 122 34 25 0 49 -24 60 -60 10 -33 103 -220 144 -289 38 -64 104 -152 178 -237 32 -37 53 -71 53 -85 0 -16 -24 -48 -77 -101 l-77 -77 35 -31 c149 -135 322 -253 494 -337 72 -34 136 -63 143 -63 7 0 19 15 26 32 8 18 28 64 45 102 l31 68 37 -5 c21 -2 76 -16 123 -30 169 -51 343 -77 517 -77 125 0 128 -3 137 -134 4 -50 8 -91 10 -93 7 -7 227 27 328 51 169 40 458 155 458 181 0 7 -20 51 -45 98 -25 47 -45 93 -45 101 0 17 -1 16 152 116 115 76 293 238 379 346 36 46 57 64 74 64 13 0 56 -24 97 -53 41 -30 80 -57 86 -60 14 -9 43 3 36 14 -3 5 2 12 10 15 9 3 14 10 11 14 -3 5 3 13 12 19 10 6 15 11 11 11 -12 0 52 100 65 100 5 0 8 3 5 6 -3 3 20 60 52 127 32 67 70 157 85 200 19 53 33 77 44 77 12 0 13 2 3 9 -18 11 -5 61 17 62 10 0 11 2 4 6 -18 7 -16 33 2 33 20 0 19 5 -7 33 -24 25 -68 42 -68 26 0 -5 -7 -9 -15 -9 -8 0 -15 4 -15 9 0 4 -11 6 -25 3 -14 -2 -25 0 -25 5 0 5 -12 8 -27 6 -50 -6 -58 8 -57 97 1 51 -2 80 -9 80 -6 0 -4 6 5 13 20 15 30 97 11 90 -9 -3 -13 4 -13 21 0 16 6 26 15 26 11 0 15 12 15 50 0 38 -4 50 -15 50 -21 0 -21 85 -1 93 8 3 13 14 11 24 -2 10 -4 21 -4 26 -1 4 -8 7 -16 7 -8 0 -15 9 -15 20 0 11 5 20 10 20 6 0 10 7 10 15 0 8 -7 15 -15 15 -21 0 -19 30 3 46 15 12 15 12 -5 7 -14 -3 -23 -1 -23 6 0 8 -4 9 -12 2 -115 -95 -351 -235 -469 -280 -22 -8 -28 -18 -33 -55 -4 -25 -11 -46 -17 -46 -5 0 -9 -9 -9 -20 0 -11 -5 -19 -10 -18 -6 2 -16 -8 -23 -21 -6 -13 -21 -25 -32 -27 -11 -2 -26 -12 -33 -23 -11 -15 -21 -18 -48 -14 -26 4 -34 2 -34 -10 0 -11 -10 -15 -35 -15 -23 0 -35 5 -35 14 0 14 -17 19 -58 15 -15 -1 -21 2 -17 9 9 14 -24 40 -42 33 -18 -7 -38 8 -23 17 19 11 3 29 -20 23 -11 -3 -20 -1 -20 3 0 5 -131 10 -290 10 -271 2 -290 1 -290 -16 0 -18 -20 -40 -42 -44 -7 -2 -31 -11 -53 -21 -48 -21 -139 -22 -185 -2 -41 17 -95 68 -118 111 -11 21 -16 55 -16 101 0 76 13 113 61 161 16 16 28 34 28 39 -1 6 -24 57 -52 115 -92 189 -158 398 -199 625 -31 173 -29 586 3 746 4 22 2 29 -11 29 -9 0 -16 -5 -16 -11z m-510 -1489 c48 -13 106 -63 132 -113 28 -54 30 -147 4 -197 -37 -71 -114 -130 -171 -130 -14 0 -25 -4 -25 -8 0 -4 -11 -9 -25 -10 -14 -1 -25 2 -25 7 0 5 -13 11 -29 14 -46 9 -114 68 -140 120 -59 120 4 281 124 316 41 12 113 13 155 1z"></path><path id="puGszhTRw" d="M3906 3097 c-7 -30 2 -61 48 -160 20 -43 36 -84 36 -91 0 -8 9 -33 19 -57 11 -25 21 -72 23 -106 3 -67 14 -76 68 -63 22 6 25 11 23 44 -6 90 -162 455 -194 456 -9 0 -19 -11 -23 -23z"></path></g></g><g id="l2eMsxxy1R2vdOnFlR1K0lv" fill="rgb(29,69,124)" style="transform: none;"><g><path id="pBTnuxjYy" d="M3885 4303 c-33 -13 -165 -64 -294 -113 -128 -49 -238 -93 -243 -98 -5 -5 -1 -15 9 -24 17 -15 31 -11 188 49 94 35 185 70 203 76 20 6 31 16 28 24 -8 21 26 34 40 15 11 -15 14 -14 24 13 11 29 12 30 27 10 14 -19 14 -19 11 -1 -2 10 3 21 10 23 6 3 12 -2 12 -11 0 -31 27 -16 38 21 6 20 10 38 9 38 -1 1 -29 -9 -62 -22z"></path><path id="pYdRoQBXw" d="M1987 4190 c-59 -4 -111 -10 -114 -14 -4 -4 -3 -14 3 -23 8 -14 22 -16 65 -13 102 9 344 4 434 -9 50 -7 146 -26 215 -42 117 -28 126 -29 137 -12 17 23 10 28 -77 52 -108 29 -229 49 -355 56 -60 3 -130 7 -155 9 -25 1 -94 -1 -153 -4z"></path><path id="p14smDK8sp" d="M913 3808 c-18 -13 -33 -27 -33 -31 0 -5 13 1 29 12 16 12 34 21 40 21 6 0 11 5 11 10 0 15 -12 12 -47 -12z"></path><path id="p0HfljKot" d="M705 3640 c-16 -16 -26 -32 -24 -35 3 -2 21 11 39 30 19 19 29 35 24 35 -6 0 -23 -13 -39 -30z"></path><path id="pjzA5ELhL" d="M590 3525 c-13 -14 -21 -27 -18 -30 2 -3 15 6 28 20 13 14 21 27 18 30 -2 3 -15 -6 -28 -20z"></path><path id="pg1CBsCmm" d="M3932 3112 c-19 -13 -7 -50 53 -167 28 -56 64 -143 80 -193 20 -60 35 -92 45 -93 10 0 11 -2 3 -6 -7 -2 -13 -11 -13 -20 0 -8 6 -13 13 -10 33 12 -17 182 -112 379 -41 88 -59 116 -69 110z"></path></g></g></svg>